<?xml version="1.0" encoding="UTF-8"?>
<svg width="129px" height="129px" viewBox="0 0 129 129" version="1.1" xmlns="http://www.w3.org/2000/svg" xmlns:xlink="http://www.w3.org/1999/xlink">
    <!-- Generator: Sketch 53.1 (72631) - https://sketchapp.com -->
    <title>Group 69</title>
    <desc>Created with Sketch.</desc>
    <g id="Symbols" stroke="none" stroke-width="1" fill="none" fill-rule="evenodd">
        <g id="logo/association_black">
            <g id="Group-69">
                <path d="M51.4388,25.5153 C55.7848,23.5003 60.9728,27.5423 67.0358,29.1583 C74.6568,31.1873 82.9408,31.8453 84.5208,39.6313 C87.0798,52.2613 83.7308,59.6363 83.7308,59.6363 C83.7308,59.6363 74.4778,67.1343 54.6788,58.1983 C34.8848,49.2633 36.5488,44.5083 36.5488,44.5083 C36.5488,44.5083 38.8398,31.3583 51.4388,25.5153" id="Fill-1" fill="#221E1F"></path>
                <path d="M34.8129,45.5505 C34.8129,45.5505 32.5459,47.6695 33.1859,49.5435 C33.8269,51.4195 38.5369,59.0785 52.0849,64.1675 C65.6349,69.2585 79.3279,69.5135 83.3699,65.5905 C84.6549,64.3435 83.6339,58.9215 83.6339,58.9215 L84.6359,49.1615 C86.8779,50.0385 87.9559,50.1125 91.6349,51.7045 C101.2849,55.8825 115.4889,70.7645 110.8829,83.1025 C106.2759,95.4425 87.2279,97.0165 68.4459,86.2385 C36.8619,68.1145 33.5659,52.4045 18.3959,46.0745 C15.3369,44.7985 22.0799,48.1055 28.6019,46.6255 C35.1229,45.1445 34.8129,45.5505 34.8129,45.5505" id="Fill-3" fill="#221E1F"></path>
                <path d="M13.8627,44.1848 C21.4917,47.2598 34.7887,60.3588 45.4257,70.9288 C45.4257,70.9288 15.2317,47.7538 12.0437,46.3018 C9.2587,45.0318 9.8627,42.5728 13.8627,44.1848" id="Fill-5" fill="#221E1F"></path>
                <path d="M32.5697,18.1086 L34.4067,16.8996 L33.1977,15.0626 C33.0347,14.8136 32.8017,14.6596 32.5027,14.6006 C32.2047,14.5416 31.9297,14.5936 31.6807,14.7576 C31.4287,14.9226 31.2717,15.1536 31.2087,15.4506 C31.1467,15.7496 31.1967,16.0226 31.3617,16.2716 L32.5697,18.1086 Z M33.7547,23.8876 L29.5337,17.4756 C29.2027,16.9746 29.0997,16.4266 29.2217,15.8306 C29.3447,15.2356 29.6557,14.7736 30.1577,14.4436 L31.9937,13.2346 C32.4947,12.9046 33.0437,12.8006 33.6407,12.9256 C34.2367,13.0496 34.6977,13.3596 35.0267,13.8586 L39.2487,20.2706 L37.4197,21.4736 L35.0067,17.8096 L33.1697,19.0186 L35.5827,22.6846 L33.7547,23.8876 Z" id="Fill-7" fill="#221E1F"></path>
                <path d="M43.6576,12.1521 L42.6636,12.6011 C42.2746,11.9721 41.8086,11.7801 41.2646,12.0251 C40.9126,12.1861 40.6786,12.3741 40.5636,12.5941 C40.4486,12.8131 40.4516,13.0601 40.5776,13.3351 C40.7066,13.6221 41.3736,13.8061 42.5796,13.8841 C43.5606,13.9521 44.1746,14.1001 44.4216,14.3231 C44.6676,14.5481 44.8626,14.8191 45.0046,15.1341 C45.2556,15.6901 45.2746,16.2521 45.0596,16.8211 C44.8446,17.3901 44.4646,17.7981 43.9186,18.0461 L42.9166,18.4971 C41.5856,19.0991 40.6206,18.7351 40.0196,17.4041 L41.0226,16.9511 C41.4006,17.5811 41.8626,17.7731 42.4086,17.5261 C42.7616,17.3661 42.9956,17.1751 43.1096,16.9561 C43.2246,16.7341 43.2196,16.4861 43.0956,16.2121 C42.9686,15.9301 42.3016,15.7471 41.0976,15.6591 C40.1146,15.5961 39.4986,15.4511 39.2516,15.2251 C39.0046,14.9981 38.8106,14.7291 38.6686,14.4171 C38.4166,13.8581 38.3986,13.2941 38.6156,12.7251 C38.8316,12.1541 39.2116,11.7471 39.7546,11.5021 L40.7566,11.0481 C42.0056,10.4851 42.9706,10.8521 43.6576,12.1521" id="Fill-9" fill="#221E1F"></path>
                <path d="M51.4149,9.7243 L50.3679,10.0243 C50.0729,9.3463 49.6389,9.0893 49.0669,9.2543 C48.6959,9.3613 48.4359,9.5153 48.2899,9.7153 C48.1439,9.9163 48.1139,10.1613 48.1969,10.4503 C48.2839,10.7523 48.9169,11.0303 50.0989,11.2833 C51.0609,11.4933 51.6459,11.7253 51.8579,11.9833 C52.0699,12.2423 52.2229,12.5383 52.3179,12.8703 C52.4869,13.4563 52.4229,14.0163 52.1289,14.5483 C51.8349,15.0793 51.3979,15.4283 50.8229,15.5933 L49.7659,15.8963 C48.3629,16.3003 47.4599,15.7993 47.0579,14.3963 L48.1149,14.0933 C48.3979,14.7703 48.8289,15.0263 49.4039,14.8623 C49.7769,14.7543 50.0349,14.6003 50.1799,14.3973 C50.3259,14.1953 50.3559,13.9503 50.2729,13.6613 C50.1879,13.3643 49.5559,13.0863 48.3769,12.8263 C47.4119,12.6213 46.8249,12.3903 46.6129,12.1293 C46.3999,11.8703 46.2469,11.5753 46.1529,11.2453 C45.9829,10.6573 46.0479,10.0953 46.3429,9.5623 C46.6389,9.0313 47.0739,8.6823 47.6469,8.5173 L48.7039,8.2143 C50.0209,7.8353 50.9239,8.3393 51.4149,9.7243" id="Fill-11" fill="#221E1F"></path>
                <path d="M56.245,8.8606 L56.656,12.1236 C56.693,12.4166 56.831,12.6566 57.071,12.8436 C57.31,13.0316 57.58,13.1056 57.884,13.0676 C58.185,13.0286 58.43,12.8896 58.615,12.6496 C58.801,12.4086 58.875,12.1416 58.839,11.8486 L58.428,8.5866 C58.39,8.2866 58.249,8.0446 58.006,7.8576 C57.763,7.6696 57.494,7.5956 57.199,7.6326 C56.9,7.6706 56.656,7.8086 56.47,8.0516 C56.282,8.2926 56.207,8.5626 56.245,8.8606 M55.97,6.6786 L58.152,6.4036 C58.747,6.3296 59.285,6.4796 59.766,6.8566 C60.245,7.2326 60.524,7.7186 60.599,8.3126 L61.01,11.5746 C61.084,12.1636 60.936,12.6996 60.562,13.1826 C60.19,13.6656 59.707,13.9456 59.112,14.0206 L56.931,14.2966 C56.335,14.3696 55.798,14.2216 55.317,13.8496 C54.837,13.4756 54.559,12.9926 54.484,12.3976 L54.074,9.1346 C53.997,8.5336 54.146,7.9916 54.521,7.5126 C54.895,7.0306 55.378,6.7536 55.97,6.6786" id="Fill-13" fill="#221E1F"></path>
                <path d="M68.7987,8.3991 L67.7107,8.3651 C67.6487,7.6291 67.2937,7.2531 66.6467,7.2321 C66.3457,7.2221 66.0827,7.3221 65.8607,7.5311 C65.6387,7.7401 65.5227,7.9951 65.5127,8.2961 L65.4087,11.5831 C65.3997,11.8771 65.4987,12.1361 65.7057,12.3581 C65.9127,12.5801 66.1677,12.6961 66.4737,12.7071 C67.1197,12.7271 67.4987,12.3761 67.6077,11.6521 L68.6947,11.6871 C68.5607,13.1431 67.8087,13.8481 66.4397,13.8061 L65.3407,13.7711 C64.7407,13.7531 64.2327,13.5211 63.8167,13.0781 C63.4017,12.6341 63.2017,12.1131 63.2207,11.5141 L63.3237,8.2261 C63.3437,7.6221 63.5747,7.1091 64.0197,6.6941 C64.4667,6.2781 64.9857,6.0801 65.5807,6.0971 L66.6817,6.1321 C68.0567,6.1751 68.7637,6.9311 68.7987,8.3991" id="Fill-15" fill="#221E1F"></path>
                <path d="M71.8358,5.4699 L71.9958,4.3829 L74.1608,4.7009 L74.0008,5.7899 L71.8358,5.4699 Z M70.5538,14.1419 L71.6758,6.5479 L73.8418,6.8669 L72.7208,14.4619 L70.5538,14.1419 Z" id="Fill-17" fill="#221E1F"></path>
                <path d="M79.7665,12.7463 L78.7065,12.4493 C78.4165,12.3693 78.1385,12.4013 77.8715,12.5503 C77.6085,12.6983 77.4355,12.9163 77.3555,13.2023 L77.3515,13.2133 C77.2725,13.4973 77.3065,13.7703 77.4545,14.0373 C77.6035,14.3023 77.8245,14.4753 78.1175,14.5583 C78.4125,14.6403 78.6905,14.6053 78.9545,14.4553 C79.2195,14.3043 79.3905,14.0873 79.4705,13.8053 L79.7665,12.7463 Z M80.0615,11.6863 L80.3555,10.6373 C80.4355,10.3463 80.4025,10.0693 80.2495,9.8023 C80.0975,9.5363 79.8775,9.3623 79.5915,9.2823 L78.5335,8.9863 C77.9095,8.8113 77.4605,9.0673 77.1885,9.7523 L76.1285,9.4563 C76.6845,8.0893 77.5845,7.5793 78.8295,7.9283 L80.9465,8.5183 C81.5245,8.6803 81.9615,9.0263 82.2585,9.5603 C82.5565,10.0933 82.6245,10.6493 82.4625,11.2253 L80.9895,16.5023 L78.8815,15.9123 L79.1755,14.8533 C78.8975,15.5373 78.4455,15.7913 77.8225,15.6173 L76.7625,15.3203 C76.1855,15.1603 75.7475,14.8133 75.4495,14.2843 C75.1505,13.7553 75.0815,13.2013 75.2435,12.6233 L75.2455,12.6133 C75.4085,12.0373 75.7545,11.5993 76.2855,11.3023 C76.8165,11.0023 77.3705,10.9333 77.9435,11.0943 L80.0615,11.6863 Z" id="Fill-19" fill="#221E1F"></path>
                <path d="M87.7245,8.6374 L89.7255,9.5244 L88.8355,11.5254 L89.8425,11.9724 L89.3955,12.9774 L88.3905,12.5314 L86.6105,16.5424 C86.4685,16.8644 86.4645,17.1584 86.6025,17.4244 C86.7395,17.6894 86.8995,17.8614 87.0805,17.9414 L87.1735,17.9834 L86.7275,18.9894 L85.7225,18.5434 C85.1715,18.2984 84.7865,17.8924 84.5715,17.3264 C84.3545,16.7604 84.3665,16.2024 84.6105,15.6544 L86.3905,11.6434 L85.3845,11.1984 L85.8305,10.1924 L86.8355,10.6384 L87.7245,8.6374 Z" id="Fill-21" fill="#221E1F"></path>
                <path d="M92.83,12.3332 L93.379,11.3792 L95.276,12.4692 L94.728,13.4242 L92.83,12.3332 Z M88.465,19.9342 L92.289,13.2772 L94.185,14.3682 L90.362,21.0242 L88.465,19.9342 Z" id="Fill-23" fill="#221E1F"></path>
                <path d="M97.1093,18.9299 L95.1303,21.5549 C94.9523,21.7919 94.8843,22.0589 94.9253,22.3599 C94.9663,22.6609 95.1083,22.9039 95.3533,23.0879 C95.5963,23.2719 95.8693,23.3409 96.1703,23.2979 C96.4693,23.2539 96.7093,23.1159 96.8863,22.8799 L98.8663,20.2539 C99.0473,20.0129 99.1163,19.7409 99.0723,19.4359 C99.0283,19.1339 98.8873,18.8929 98.6493,18.7119 C98.4093,18.5319 98.1373,18.4629 97.8353,18.5039 C97.5323,18.5469 97.2913,18.6889 97.1093,18.9299 M98.4333,17.1729 L100.1883,18.4969 C100.6683,18.8569 100.9493,19.3409 101.0313,19.9459 C101.1133,20.5509 100.9743,21.0919 100.6143,21.5709 L98.6343,24.1969 C98.2783,24.6709 97.7963,24.9509 97.1923,25.0379 C96.5883,25.1259 96.0473,24.9889 95.5693,24.6269 L93.8133,23.3039 C93.3343,22.9429 93.0513,22.4609 92.9673,21.8599 C92.8823,21.2569 93.0213,20.7179 93.3823,20.2379 L95.3623,17.6129 C95.7263,17.1279 96.2113,16.8429 96.8133,16.7599 C97.4183,16.6779 97.9573,16.8139 98.4333,17.1729" id="Fill-25" fill="#221E1F"></path>
                <path d="M98.6815,27.1628 L104.2505,21.8798 L105.7565,23.4678 L104.9595,24.2238 C105.2585,24.0028 105.5365,23.8948 105.7945,23.9028 C106.0525,23.9108 106.2925,24.0308 106.5135,24.2648 L107.2705,25.0628 C107.6835,25.4988 107.8805,26.0208 107.8625,26.6308 C107.8435,27.2418 107.6175,27.7518 107.1825,28.1648 L103.2075,31.9338 L101.7025,30.3478 L105.6755,26.5768 C105.8945,26.3698 106.0065,26.1128 106.0145,25.8068 C106.0205,25.4988 105.9215,25.2388 105.7165,25.0208 C105.5085,24.8038 105.2515,24.6898 104.9485,24.6818 C104.6435,24.6738 104.3795,24.7728 104.1615,24.9798 L100.1885,28.7518 L98.6815,27.1628 Z" id="Fill-27" fill="#221E1F"></path>
                <path d="M112.0018,34.9885 L109.1648,36.6525 C108.9098,36.8015 108.7448,37.0225 108.6668,37.3165 C108.5888,37.6115 108.6268,37.8895 108.7808,38.1535 C108.9348,38.4155 109.1588,38.5845 109.4538,38.6605 C109.7478,38.7355 110.0228,38.6985 110.2768,38.5505 L113.1128,36.8855 C113.3728,36.7335 113.5418,36.5085 113.6178,36.2115 C113.6938,35.9155 113.6568,35.6375 113.5058,35.3815 C113.3548,35.1205 113.1298,34.9525 112.8348,34.8745 C112.5388,34.7985 112.2618,34.8365 112.0018,34.9885 M113.8978,33.8755 L115.0118,35.7735 C115.3138,36.2895 115.3878,36.8445 115.2308,37.4335 C115.0748,38.0245 114.7388,38.4695 114.2208,38.7735 L111.3838,40.4385 C110.8728,40.7375 110.3218,40.8125 109.7308,40.6605 C109.1398,40.5095 108.6918,40.1735 108.3898,39.6575 L107.2758,37.7595 C106.9738,37.2425 106.8978,36.6905 107.0508,36.1015 C107.2038,35.5135 107.5398,35.0685 108.0578,34.7645 L110.8948,33.0995 C111.4168,32.7945 111.9738,32.7175 112.5628,32.8735 C113.1508,33.0265 113.5968,33.3625 113.8978,33.8755" id="Fill-29" fill="#221E1F"></path>
                <path d="M110.6698,44.2995 L116.7698,41.8365 L116.3578,40.8175 L117.3788,40.4055 L117.7888,41.4255 L117.8798,41.3885 C118.4098,41.1745 118.9428,41.1815 119.4788,41.4085 C120.0138,41.6355 120.3878,42.0145 120.6028,42.5445 L121.4578,44.6655 L120.4388,45.0775 L119.9908,43.9715 C119.8898,43.7165 119.7108,43.5365 119.4538,43.4305 C119.1988,43.3225 118.9468,43.3185 118.6988,43.4195 L118.6088,43.4555 L119.0208,44.4745 L117.9998,44.8855 L117.5898,43.8665 L111.4888,46.3285 L110.6698,44.2995 Z" id="Fill-31" fill="#221E1F"></path>
                <polygon id="Fill-33" fill="#221E1F" points="3.7381 67.9001 13.5401 66.7861 13.7881 68.9601 9.4271 69.4561 9.6751 71.6421 14.0361 71.1461 14.2841 73.3211 4.4811 74.4361 4.2341 72.2611 8.5931 71.7641 8.3441 69.5801 3.9841 70.0751"></polygon>
                <path d="M9.4379,80.799 L9.1389,79.74 C9.0569,79.45 8.8829,79.231 8.6189,79.08 C8.3539,78.932 8.0779,78.898 7.7919,78.979 L7.7819,78.982 C7.4989,79.062 7.2809,79.234 7.1319,79.499 C6.9819,79.764 6.9489,80.042 7.0309,80.336 C7.1149,80.629 7.2899,80.849 7.5549,80.997 C7.8209,81.145 8.0959,81.179 8.3779,81.098 L9.4379,80.799 Z M10.4969,80.499 L11.5439,80.204 C11.8339,80.121 12.0549,79.946 12.2029,79.678 C12.3509,79.41 12.3849,79.134 12.3039,78.846 L12.0039,77.788 C11.8289,77.165 11.3769,76.915 10.6489,77.039 L10.3509,75.981 C11.8079,75.743 12.7109,76.246 13.0629,77.489 L13.6609,79.606 C13.8239,80.183 13.7549,80.737 13.4549,81.268 C13.1559,81.8 12.7169,82.147 12.1389,82.311 L6.8679,83.8 L6.2729,81.693 L7.3319,81.394 C6.6029,81.511 6.1509,81.258 5.9749,80.635 L5.6749,79.577 C5.5119,78.999 5.5789,78.446 5.8759,77.915 C6.1729,77.385 6.6089,77.038 7.1859,76.875 L7.1959,76.872 C7.7729,76.709 8.3269,76.778 8.8579,77.075 C9.3889,77.373 9.7359,77.81 9.8979,78.383 L10.4969,80.499 Z" id="Fill-35" fill="#221E1F"></path>
                <path d="M15.204,89.3508 L14.754,88.3588 C15.386,87.9778 15.567,87.4918 15.299,86.9028 C15.174,86.6278 14.969,86.4378 14.683,86.3298 C14.398,86.2238 14.118,86.2328 13.843,86.3568 L10.85,87.7188 C10.58,87.8398 10.394,88.0438 10.285,88.3288 C10.178,88.6128 10.186,88.8918 10.313,89.1688 C10.58,89.7598 11.063,89.9428 11.76,89.7198 L12.211,90.7118 C10.845,91.2358 9.88,90.8718 9.312,89.6248 L8.855,88.6248 C8.607,88.0778 8.592,87.5218 8.805,86.9518 C9.017,86.3818 9.397,85.9738 9.943,85.7258 L12.936,84.3638 C13.488,84.1138 14.05,84.0958 14.62,84.3108 C15.19,84.5258 15.598,84.9048 15.845,85.4468 L16.3,86.4478 C16.871,87.7018 16.504,88.6688 15.204,89.3508" id="Fill-37" fill="#221E1F"></path>
                <polygon id="Fill-39" fill="#221E1F" points="11.638 94.2893 19.906 88.9073 21.1 90.7423 16.966 93.4343 21.059 94.6923 22.26 96.5363 16.532 94.7833 15.825 100.7243 14.625 98.8803 15.132 94.6263 12.831 96.1243"></polygon>
                <path d="M21.8309,100.9162 L23.3089,102.5452 L24.1149,101.8122 C24.3389,101.6102 24.4569,101.3552 24.4709,101.0502 C24.4859,100.7432 24.3919,100.4802 24.1919,100.2592 C23.9889,100.0352 23.7349,99.9172 23.4289,99.9022 C23.1249,99.8882 22.8609,99.9812 22.6379,100.1842 L21.8309,100.9162 Z M23.9659,104.9042 L21.0169,101.6542 L20.2029,102.3942 C19.9829,102.5922 19.8679,102.8432 19.8509,103.1452 C19.8349,103.4492 19.9299,103.7152 20.1349,103.9402 L20.8739,104.7542 C21.3609,105.2932 21.8739,105.3172 22.4119,104.8292 L23.1499,105.6442 C21.9559,106.4972 20.9249,106.4472 20.0599,105.4932 L18.5809,103.8652 C18.1779,103.4202 17.9909,102.8952 18.0209,102.2882 C18.0499,101.6802 18.2869,101.1752 18.7319,100.7722 L21.1659,98.5622 C21.6159,98.1552 22.1439,97.9672 22.7529,97.9972 C23.3609,98.0282 23.8659,98.2652 24.2679,98.7062 L25.7449,100.3342 C26.1469,100.7782 26.3329,101.3072 26.3019,101.9142 C26.2689,102.5242 26.0309,103.0302 25.5869,103.4342 L23.9659,104.9042 Z" id="Fill-41" fill="#221E1F"></path>
                <path d="M25.3988,110.5022 L23.7148,109.1022 L28.6248,103.2002 L30.3078,104.6012 L28.9018,106.2902 C29.4368,105.7822 29.9618,105.5042 30.4778,105.4562 C30.9938,105.4092 31.5008,105.5932 31.9998,106.0072 L32.8358,106.7032 L31.4298,108.3952 L29.7478,106.9932 C29.5148,106.8022 29.2478,106.7182 28.9458,106.7442 C28.6428,106.7722 28.3958,106.8992 28.2048,107.1292 L25.3988,110.5022 Z" id="Fill-43" fill="#221E1F"></path>
                <path d="M36.9799,111.9397 L36.0599,111.3587 C36.3699,110.6867 36.2719,110.1927 35.7679,109.8757 C35.4399,109.6687 35.1529,109.5777 34.9069,109.6027 C34.6619,109.6267 34.4569,109.7657 34.2959,110.0217 C34.1269,110.2897 34.3429,110.9467 34.9409,111.9967 C35.4239,112.8517 35.6409,113.4457 35.5889,113.7747 C35.5379,114.1047 35.4179,114.4167 35.2349,114.7087 C34.9099,115.2247 34.4499,115.5477 33.8569,115.6837 C33.2639,115.8177 32.7129,115.7247 32.2079,115.4047 L31.2759,114.8177 C30.0419,114.0407 29.8139,113.0337 30.5929,111.7977 L31.5229,112.3857 C31.2059,113.0477 31.3009,113.5397 31.8089,113.8597 C32.1359,114.0667 32.4229,114.1557 32.6709,114.1307 C32.9179,114.1047 33.1229,113.9637 33.2839,113.7087 C33.4479,113.4477 33.2349,112.7907 32.6429,111.7377 C32.1529,110.8817 31.9349,110.2897 31.9879,109.9577 C32.0409,109.6267 32.1589,109.3157 32.3419,109.0267 C32.6689,108.5077 33.1289,108.1817 33.7249,108.0467 C34.3189,107.9147 34.8679,108.0067 35.3719,108.3257 L36.3019,108.9117 C37.4609,109.6427 37.6879,110.6517 36.9799,111.9397" id="Fill-45" fill="#221E1F"></path>
                <path d="M43.118,111.2658 L43.538,110.2488 L45.561,111.0858 L45.142,112.1018 L43.118,111.2658 Z M39.773,119.3698 L42.701,112.2728 L44.725,113.1088 L41.796,120.2038 L39.773,119.3698 Z" id="Fill-47" fill="#221E1F"></path>
                <path d="M44.4681,121.2619 L46.5171,113.8639 L48.6271,114.4479 L48.3331,115.5069 C48.4751,115.1629 48.6581,114.9279 48.8831,114.8009 C49.1081,114.6749 49.3761,114.6559 49.6871,114.7419 L50.7471,115.0349 C51.3241,115.1949 51.7631,115.5409 52.0611,116.0739 C52.3591,116.6069 52.4281,117.1599 52.2681,117.7389 L50.8061,123.0179 L48.6971,122.4339 L50.1601,117.1549 C50.2401,116.8649 50.2041,116.5849 50.0521,116.3209 C49.9001,116.0529 49.6791,115.8799 49.3931,115.8009 C49.1021,115.7209 48.8241,115.7549 48.5591,115.9059 C48.2941,116.0559 48.1211,116.2769 48.0391,116.5679 L46.5761,121.8459 L44.4681,121.2619 Z" id="Fill-49" fill="#221E1F"></path>
                <polygon id="Fill-51" fill="#221E1F" points="58.3036 124.0959 58.9426 115.3519 56.7586 115.1929 56.8406 114.0959 63.3996 114.5759 63.3196 115.6719 61.1366 115.5129 60.4966 124.2559"></polygon>
                <path d="M68.7128,120.844 L67.6138,120.918 C67.3148,120.938 67.0638,121.063 66.8628,121.291 C66.6608,121.519 66.5698,121.781 66.5918,122.079 L66.5928,122.089 C66.6118,122.383 66.7358,122.63 66.9638,122.831 C67.1918,123.032 67.4578,123.122 67.7638,123.102 C68.0668,123.081 68.3168,122.955 68.5188,122.727 C68.7168,122.496 68.8058,122.235 68.7858,121.942 L68.7128,120.844 Z M68.6378,119.746 L68.5648,118.659 C68.5448,118.359 68.4188,118.108 68.1868,117.907 C67.9558,117.706 67.6898,117.616 67.3928,117.637 L66.2958,117.711 C65.6498,117.754 65.3128,118.146 65.2828,118.882 L64.1868,118.955 C64.2548,117.482 64.9328,116.701 66.2208,116.614 L68.4168,116.466 C69.0138,116.425 69.5418,116.607 69.9998,117.01 C70.4588,117.413 70.7068,117.913 70.7478,118.512 L71.1178,123.978 L68.9348,124.124 L68.8598,123.029 C68.8228,123.766 68.4828,124.156 67.8358,124.199 L66.7388,124.274 C66.1418,124.314 65.6128,124.134 65.1558,123.734 C64.6978,123.335 64.4478,122.835 64.4078,122.237 L64.4068,122.226 C64.3658,121.628 64.5468,121.101 64.9488,120.643 C65.3518,120.185 65.8498,119.935 66.4418,119.895 L68.6378,119.746 Z" id="Fill-53" fill="#221E1F"></path>
                <path d="M73.9227,123.4816 L72.4817,115.9416 L74.6307,115.5296 L76.0727,123.0706 L73.9227,123.4816 Z M72.2767,114.8706 L72.0707,113.7906 L74.2207,113.3796 L74.4277,114.4606 L72.2767,114.8706 Z" id="Fill-55" fill="#221E1F"></path>
                <path d="M76.5331,115.3713 L78.5891,114.6173 L80.8501,120.7933 L81.8831,120.4153 C82.1691,120.3093 82.3771,120.1203 82.5031,119.8433 C82.6301,119.5673 82.6421,119.2913 82.5421,119.0153 L80.6531,113.8613 L82.7091,113.1083 L84.9711,119.2833 L86.0041,118.9053 C86.2831,118.8043 86.4881,118.6133 86.6141,118.3383 C86.7401,118.0603 86.7521,117.7843 86.6531,117.5083 L84.7641,112.3543 L86.8291,111.5993 L88.1811,115.2893 C88.5331,116.2473 88.4901,117.1993 88.0541,118.1463 C87.6181,119.0933 86.9181,119.7423 85.9541,120.0963 L83.2951,121.0693 L83.1751,120.7413 C82.8581,121.1053 82.4111,121.3923 81.8341,121.6053 L79.1741,122.5803 L76.5331,115.3713 Z" id="Fill-57" fill="#221E1F"></path>
                <path d="M94.3661,112.0598 L93.4301,112.6368 C93.1751,112.7948 93.0111,113.0208 92.9391,113.3168 C92.8671,113.6128 92.9091,113.8868 93.0651,114.1408 L93.0711,114.1498 C93.2241,114.4008 93.4511,114.5618 93.7471,114.6328 C94.0411,114.7058 94.3201,114.6608 94.5791,114.4998 C94.8381,114.3408 95.0031,114.1128 95.0711,113.8158 C95.1411,113.5208 95.0971,113.2468 94.9451,112.9968 L94.3661,112.0598 Z M93.7901,111.1238 L93.2191,110.1958 C93.0611,109.9398 92.8321,109.7758 92.5351,109.7058 C92.2361,109.6358 91.9611,109.6808 91.7071,109.8368 L90.7701,110.4138 C90.2191,110.7518 90.1011,111.2548 90.4191,111.9208 L89.4831,112.4968 C88.8561,111.1608 89.0941,110.1538 90.1931,109.4768 L92.0651,108.3248 C92.5771,108.0088 93.1291,107.9238 93.7221,108.0678 C94.3151,108.2108 94.7681,108.5378 95.0831,109.0478 L97.9561,113.7108 L96.0921,114.8608 L95.5141,113.9238 C95.8271,114.5928 95.7071,115.0978 95.1561,115.4368 L94.2191,116.0128 C93.7091,116.3278 93.1581,116.4148 92.5671,116.2748 C91.9751,116.1328 91.5221,115.8078 91.2081,115.2968 L91.2021,115.2888 C90.8871,114.7778 90.8011,114.2268 90.9431,113.6338 C91.0861,113.0418 91.4101,112.5888 91.9181,112.2768 L93.7901,111.1238 Z" id="Fill-59" fill="#221E1F"></path>
                <path d="M100.4227,111.9025 L95.4097,106.0895 L97.0687,104.6595 L97.7867,105.4925 C97.5787,105.1825 97.4847,104.9005 97.5047,104.6425 C97.5257,104.3855 97.6567,104.1515 97.9017,103.9415 L98.7347,103.2235 C99.1887,102.8325 99.7187,102.6605 100.3287,102.7075 C100.9377,102.7555 101.4377,103.0065 101.8277,103.4595 L105.4037,107.6085 L103.7467,109.0375 L100.1697,104.8885 C99.9737,104.6615 99.7237,104.5365 99.4157,104.5145 C99.1107,104.4925 98.8447,104.5795 98.6197,104.7745 C98.3907,104.9705 98.2657,105.2215 98.2427,105.5265 C98.2207,105.8305 98.3077,106.0975 98.5047,106.3255 L102.0817,110.4735 L100.4227,111.9025 Z" id="Fill-61" fill="#221E1F"></path>
                <path d="M22.6473,43.4914 C29.6273,29.5474 43.4533,19.4334 60.1253,17.9374 C85.7213,15.6414 108.3323,34.5294 110.6283,60.1254 C110.8033,62.0814 110.8553,64.0204 110.7903,65.9334" id="Stroke-63" stroke="#221E1F" stroke-width="0.566" stroke-linecap="round"></path>
                <path d="M98.8407,95.4426 C91.2607,103.8546 80.6087,109.5376 68.4407,110.6296 C42.8437,112.9246 20.2337,94.0366 17.9377,68.4406 C17.5367,63.9786 17.7807,59.6076 18.5907,55.4186" id="Stroke-65" stroke="#221E1F" stroke-width="0.566" stroke-linecap="round"></path>
                <path d="M128.0233,58.5651 C131.1803,93.7681 105.2033,124.8651 70.0013,128.0231 C34.7983,131.1811 3.7003,105.2031 0.5433,70.0011 C-2.6157,34.7981 23.3623,3.7011 58.5653,0.5431 C93.7673,-2.6149 124.8653,23.3621 128.0233,58.5651 Z" id="Stroke-67" stroke="#221E1F" stroke-width="0.566"></path>
            </g>
        </g>
    </g>
</svg>